<svg width="237" height="32" viewBox="0 0 237 32" fill="none" xmlns="http://www.w3.org/2000/svg">
<path d="M33.5471 29.3051C30.8767 25.5999 25.7028 22.1472 25.9531 16.7578C26.0366 13.7262 29.7919 10.5262 26.6207 7.66303C23.2827 9.93672 20.3619 15.4946 17.2742 19.1999C15.0211 16.842 13.4355 13.7262 11.0154 11.5367C5.17389 11.6209 10.6816 21.2209 6.1753 21.642C3.25453 21.8946 3.17108 14.063 3.42143 11.1157C3.75523 8.1683 6.67601 3.62093 8.59537 3.45251C14.1866 2.94724 13.3521 11.7051 16.9404 13.8946C23.3661 12.1262 22.2813 2.69461 29.7919 2.02093C30.1257 1.93672 30.4595 2.10514 30.4595 2.35777C31.1271 11.2841 31.6278 20.9683 33.5471 29.3051ZM87.957 5.13672C84.2017 12.3788 82.4492 26.442 90.7109 29.8946C86.5383 22.8209 95.0503 10.3578 87.957 5.13672ZM177.917 11.4525C173.244 7.99988 165.316 9.26303 162.312 13.5578C159.558 17.4315 160.142 24.3367 160.559 29.3051C163.814 20.8841 167.819 11.7051 177.917 11.4525ZM81.0306 9.68409C81.3644 11.1999 79.8623 10.863 80.0292 12.1262C81.114 13.1367 82.1989 12.5472 82.4492 11.1157C82.032 10.5262 81.6147 10.0209 81.0306 9.68409ZM57.4975 17.0946C55.9954 20.042 57.5809 23.9999 57.1637 27.9578C60.3348 26.3578 61.67 22.9051 64.7577 21.3051C65.8426 25.0946 66.6771 29.1367 71.0165 29.7262C73.3531 25.3472 68.5964 22.8209 68.5964 18.5262C64.6742 17.3472 63.1721 21.0525 61.0024 22.7367C60.1679 20.3788 59.25 18.2736 57.4975 17.0946ZM75.4394 20.8841C76.107 23.4104 75.1056 27.7894 76.8581 29.3051C77.8595 29.3051 79.1112 29.4736 79.6119 28.9683C79.3616 26.1894 78.6105 23.9157 78.1933 21.3051C76.9415 21.4736 76.7746 20.6315 75.4394 20.8841ZM43.9785 27.1999C44.9799 26.7788 46.3151 26.7788 46.3985 25.4315C45.564 25.1788 44.3123 24.7578 43.6447 25.4315C43.4778 26.2736 43.6447 26.7788 43.9785 27.1999ZM49.1524 18.1051C48.9021 22.4841 52.6573 25.7683 54.3264 21.5578C53.0746 26.0209 46.9827 28.5472 41.1411 29.5578C38.3873 25.0104 44.0619 23.5788 45.9813 21.5578C45.8144 20.042 44.4792 19.8736 44.2288 18.442C39.8059 17.5999 39.7225 21.1367 36.301 21.2209C37.3024 16.0841 45.7309 13.7262 49.1524 18.1051ZM102.811 27.1999C103.813 26.7788 105.148 26.7788 105.231 25.4315C104.48 25.1788 103.145 24.7578 102.477 25.4315C102.311 26.2736 102.477 26.7788 102.811 27.1999ZM107.985 18.1051C107.735 22.4841 111.49 25.7683 113.159 21.5578C111.907 26.0209 105.815 28.5472 99.9739 29.5578C97.22 25.0104 102.895 23.5788 104.814 21.5578C104.647 20.042 103.312 19.8736 103.062 18.442C98.6387 17.5999 98.5552 21.1367 95.1338 21.2209C96.1352 16.1683 104.564 13.7262 107.985 18.1051ZM184.176 26.863C185.344 27.4525 186.679 26.7788 186.93 25.4315C186.178 25.1788 184.843 24.7578 184.176 25.4315V26.863ZM189.683 18.1051C189.517 22.3999 193.188 25.7683 194.857 21.5578C193.606 26.0209 187.514 28.5472 181.672 29.5578C179.002 25.0104 184.593 23.5788 186.512 21.5578C186.178 20.1262 185.177 19.4525 184.426 18.442C180.253 17.7683 180.253 21.2209 176.832 21.2209C177.833 16.2525 186.345 13.642 189.683 18.1051ZM145.705 21.2209C148.709 23.7472 145.788 27.0315 143.619 27.5367C140.197 28.2946 134.773 25.3472 134.272 22.9893C133.438 19.1157 137.36 12.9683 140.114 10.442C142.868 7.91567 148.292 8.42093 149.126 4.12619C140.948 6.23146 129.432 10.9472 128.013 18.7788C125.51 32.2525 145.955 32.1683 150.128 23.663C152.715 24.2525 154.217 26.1051 155.636 27.8736C155.469 22.8209 148.959 22.1472 145.705 21.2209ZM213.55 12.5472C210.713 12.463 208.293 14.3157 204.871 15.3262C201.617 16.2525 198.028 17.0946 196.944 19.1999C195.692 21.5578 196.026 25.3472 197.611 27.1999C201.033 31.0736 207.876 28.463 211.798 26.5262C211.798 26.1894 211.214 26.1051 211.13 26.5262C206.29 27.5367 199.197 27.7051 200.031 20.9683C204.621 18.1894 211.297 17.5157 213.55 12.5472ZM221.228 21.2209C223.231 23.1578 226.151 21.5578 226.402 18.7788C224.065 19.0315 221.812 19.2841 221.228 21.2209ZM223.648 23.663C226.819 28.7157 231.409 22.6525 233.662 20.5472C231.826 22.9051 231.743 28.5472 227.403 29.642C222.98 30.7367 214.468 26.2736 214.218 22.9893C213.801 16.9262 227.069 13.3894 229.823 19.5367C228.655 21.8104 225.484 22.1472 223.648 23.663Z" fill="#090909"/>
</svg>
