<svg width="213" height="30" viewBox="0 0 213 30" xmlns="http://www.w3.org/2000/svg">
    <g fill="#000" fill-rule="evenodd">
        <path d="M.557 0H0v30.432h5.187v-18.18l9.29 10.466 9.253-10.466v18.18h5.187V0h-.549l-13.89 15.552L.557 0z" fill-rule="nonzero"/>
        <path d="m46.85 18.876 3.718-8.55 3.718 8.55H46.85zM50.297 0l-14.13 30.432h5.976l2.914-6.818h10.937l2.914 6.818h5.999L50.838 0h-.54zM83.226 5.465c3 0 5.094 1.785 5.094 4.344s-1.994 4.336-5.094 4.336H77.32v-8.68h5.906zm10.157 4.344c0-5.41-4.275-9.376-10.157-9.376H72.134v29.999h5.186V18.884h4.638l6.4 11.502v.046h5.921L87.408 18.42a9.067 9.067 0 0 0 5.952-8.611"/>
        <path d="M118.875 17.43V12.7h-10.103V5.465h13.667V.425h-18.86v30.007h19.068v-5.04h-13.875V17.43h10.103zM132.487.425v30.007h19.155v-5.04h-13.968V.425h-5.187zM159.178.425v30.007h19.154v-5.04h-13.967V.425h-5.187z" fill-rule="nonzero"/>
        <path d="m194.827 18.876 3.718-8.55 3.718 8.55h-7.436zM198.407 0l-14.13 30.432h5.982l2.914-6.818h10.93l2.914 6.818H213L198.955 0h-.549z"/>
    </g>
</svg>
